<svg class="main-svg" xmlns="http://www.w3.org/2000/svg" xmlns:xlink="http://www.w3.org/1999/xlink" width="800" height="600" style=""><rect x="0" y="0" width="800" height="600" style="fill: rgb(255, 255, 255); fill-opacity: 1;"/><defs id="defs-6a01bd"><g class="gradients"/><g class="clips"><clipPath class="axesclip" id="clip6a01bdx"><rect x="70" y="0" width="680" height="600"/></clipPath><clipPath class="axesclip" id="clip6a01bdy"><rect x="0" y="56" width="800" height="444"/></clipPath><clipPath class="axesclip" id="clip6a01bdxy"><rect x="70" y="56" width="680" height="444"/></clipPath><clipPath class="plotclip" id="clip6a01bdxyplot"><rect width="680" height="444"/></clipPath></g></defs><g class="bglayer"><rect class="bg" x="66" y="52" width="688" height="452" style="fill: rgb(255, 255, 255); fill-opacity: 1; stroke-width: 0;"/></g><g class="layer-below"><g class="imagelayer"/><g class="shapelayer"/></g><g class="cartesianlayer"><g class="subplot xy"><g class="layer-subplot"><g class="shapelayer"/><g class="imagelayer"/></g><g class="gridlayer" transform="translate(70,56)"><path class="xgrid crisp" d="M0,0v444" transform="translate(39,0)" style="stroke: rgb(238, 238, 238); stroke-opacity: 1; stroke-width: 1px;"/><path class="xgrid crisp" d="M0,0v444" transform="translate(93.73,0)" style="stroke: rgb(238, 238, 238); stroke-opacity: 1; stroke-width: 1px;"/><path class="xgrid crisp" d="M0,0v444" transform="translate(148.45,0)" style="stroke: rgb(238, 238, 238); stroke-opacity: 1; stroke-width: 1px;"/><path class="xgrid crisp" d="M0,0v444" transform="translate(203.18,0)" style="stroke: rgb(238, 238, 238); stroke-opacity: 1; stroke-width: 1px;"/><path class="xgrid crisp" d="M0,0v444" transform="translate(257.91,0)" style="stroke: rgb(238, 238, 238); stroke-opacity: 1; stroke-width: 1px;"/><path class="xgrid crisp" d="M0,0v444" transform="translate(312.64,0)" style="stroke: rgb(238, 238, 238); stroke-opacity: 1; stroke-width: 1px;"/><path class="xgrid crisp" d="M0,0v444" transform="translate(367.36,0)" style="stroke: rgb(238, 238, 238); stroke-opacity: 1; stroke-width: 1px;"/><path class="xgrid crisp" d="M0,0v444" transform="translate(422.09,0)" style="stroke: rgb(238, 238, 238); stroke-opacity: 1; stroke-width: 1px;"/><path class="xgrid crisp" d="M0,0v444" transform="translate(476.82,0)" style="stroke: rgb(238, 238, 238); stroke-opacity: 1; stroke-width: 1px;"/><path class="xgrid crisp" d="M0,0v444" transform="translate(531.55,0)" style="stroke: rgb(238, 238, 238); stroke-opacity: 1; stroke-width: 1px;"/><path class="xgrid crisp" d="M0,0v444" transform="translate(586.27,0)" style="stroke: rgb(238, 238, 238); stroke-opacity: 1; stroke-width: 1px;"/><path class="xgrid crisp" d="M0,0v444" transform="translate(641,0)" style="stroke: rgb(238, 238, 238); stroke-opacity: 1; stroke-width: 1px;"/><path class="ygrid crisp" d="M0,0h680" transform="translate(0,355.2)" style="stroke: rgb(238, 238, 238); stroke-opacity: 1; stroke-width: 1px;"/><path class="ygrid crisp" d="M0,0h680" transform="translate(0,266.4)" style="stroke: rgb(238, 238, 238); stroke-opacity: 1; stroke-width: 1px;"/><path class="ygrid crisp" d="M0,0h680" transform="translate(0,177.6)" style="stroke: rgb(238, 238, 238); stroke-opacity: 1; stroke-width: 1px;"/><path class="ygrid crisp" d="M0,0h680" transform="translate(0,88.8)" style="stroke: rgb(238, 238, 238); stroke-opacity: 1; stroke-width: 1px;"/></g><g class="overgrid"/><g class="zerolinelayer" transform="translate(70,56)"><path class="yzl zl crisp" d="M0,0h680" transform="translate(0,444)" style="stroke: rgb(68, 68, 68); stroke-opacity: 1; stroke-width: 1px;"/></g><g class="overzero"/><g class="plot" transform="translate(70, 56)" clip-path="url(#clip6a01bdxyplot)"><g class="imagelayer"/><g class="maplayer"/><g class="barlayer"/><g class="carpetlayer"/><g class="boxlayer"/><g class="scatterlayer"><g class="trace scatter tracefc9c34" style="stroke-miterlimit: 2; opacity: 1;"><path class="js-line" d="M39,265.87L93.73,263.11L148.45,252.15L203.18,263.11L257.91,254.9L312.64,252.15L367.36,252.15L422.09,263.11L476.82,279.54L531.55,391.92L586.27,444L641,444" style="vector-effect: non-scaling-stroke; fill: none; stroke: rgb(90, 10, 105); stroke-opacity: 1; stroke-width: 4px; opacity: 1;"/><g class="points"><path class="point" d="M4,0A4,4 0 1,1 0,-4A4,4 0 0,1 4,0Z" transform="translate(39,265.87)" style="opacity: 1; stroke-width: 0px; fill: rgb(90, 10, 105); fill-opacity: 1;"/><path class="point" d="M4,0A4,4 0 1,1 0,-4A4,4 0 0,1 4,0Z" transform="translate(93.73,263.11)" style="opacity: 1; stroke-width: 0px; fill: rgb(90, 10, 105); fill-opacity: 1;"/><path class="point" d="M4,0A4,4 0 1,1 0,-4A4,4 0 0,1 4,0Z" transform="translate(148.45,252.15)" style="opacity: 1; stroke-width: 0px; fill: rgb(90, 10, 105); fill-opacity: 1;"/><path class="point" d="M4,0A4,4 0 1,1 0,-4A4,4 0 0,1 4,0Z" transform="translate(203.18,263.11)" style="opacity: 1; stroke-width: 0px; fill: rgb(90, 10, 105); fill-opacity: 1;"/><path class="point" d="M4,0A4,4 0 1,1 0,-4A4,4 0 0,1 4,0Z" transform="translate(257.91,254.9)" style="opacity: 1; stroke-width: 0px; fill: rgb(90, 10, 105); fill-opacity: 1;"/><path class="point" d="M4,0A4,4 0 1,1 0,-4A4,4 0 0,1 4,0Z" transform="translate(312.64,252.15)" style="opacity: 1; stroke-width: 0px; fill: rgb(90, 10, 105); fill-opacity: 1;"/><path class="point" d="M4,0A4,4 0 1,1 0,-4A4,4 0 0,1 4,0Z" transform="translate(367.36,252.15)" style="opacity: 1; stroke-width: 0px; fill: rgb(90, 10, 105); fill-opacity: 1;"/><path class="point" d="M4,0A4,4 0 1,1 0,-4A4,4 0 0,1 4,0Z" transform="translate(422.09,263.11)" style="opacity: 1; stroke-width: 0px; fill: rgb(90, 10, 105); fill-opacity: 1;"/><path class="point" d="M4,0A4,4 0 1,1 0,-4A4,4 0 0,1 4,0Z" transform="translate(476.82,279.54)" style="opacity: 1; stroke-width: 0px; fill: rgb(90, 10, 105); fill-opacity: 1;"/><path class="point" d="M4,0A4,4 0 1,1 0,-4A4,4 0 0,1 4,0Z" transform="translate(531.55,391.92)" style="opacity: 1; stroke-width: 0px; fill: rgb(90, 10, 105); fill-opacity: 1;"/><path class="point" d="M4,0A4,4 0 1,1 0,-4A4,4 0 0,1 4,0Z" transform="translate(586.27,444)" style="opacity: 1; stroke-width: 0px; fill: rgb(90, 10, 105); fill-opacity: 1;"/><path class="point" d="M4,0A4,4 0 1,1 0,-4A4,4 0 0,1 4,0Z" transform="translate(641,444)" style="opacity: 1; stroke-width: 0px; fill: rgb(90, 10, 105); fill-opacity: 1;"/></g></g><g class="trace scatter traceef72d4" style="stroke-miterlimit: 2; opacity: 1;"><path class="js-line" d="M39,394.67L93.73,342.59L148.45,364.52L203.18,386.46L257.91,323.41L312.64,298.72L367.36,312.44L422.09,323.41L476.82,304.23L531.55,391.92L586.27,444L641,444" style="vector-effect: non-scaling-stroke; fill: none; stroke: rgb(98, 178, 0); stroke-opacity: 1; stroke-width: 4px; opacity: 1;"/><g class="points"><path class="point" d="M4,0A4,4 0 1,1 0,-4A4,4 0 0,1 4,0Z" transform="translate(39,394.67)" style="opacity: 1; stroke-width: 0px; fill: rgb(98, 178, 0); fill-opacity: 1;"/><path class="point" d="M4,0A4,4 0 1,1 0,-4A4,4 0 0,1 4,0Z" transform="translate(93.73,342.59)" style="opacity: 1; stroke-width: 0px; fill: rgb(98, 178, 0); fill-opacity: 1;"/><path class="point" d="M4,0A4,4 0 1,1 0,-4A4,4 0 0,1 4,0Z" transform="translate(148.45,364.52)" style="opacity: 1; stroke-width: 0px; fill: rgb(98, 178, 0); fill-opacity: 1;"/><path class="point" d="M4,0A4,4 0 1,1 0,-4A4,4 0 0,1 4,0Z" transform="translate(203.18,386.46)" style="opacity: 1; stroke-width: 0px; fill: rgb(98, 178, 0); fill-opacity: 1;"/><path class="point" d="M4,0A4,4 0 1,1 0,-4A4,4 0 0,1 4,0Z" transform="translate(257.91,323.41)" style="opacity: 1; stroke-width: 0px; fill: rgb(98, 178, 0); fill-opacity: 1;"/><path class="point" d="M4,0A4,4 0 1,1 0,-4A4,4 0 0,1 4,0Z" transform="translate(312.64,298.72)" style="opacity: 1; stroke-width: 0px; fill: rgb(98, 178, 0); fill-opacity: 1;"/><path class="point" d="M4,0A4,4 0 1,1 0,-4A4,4 0 0,1 4,0Z" transform="translate(367.36,312.44)" style="opacity: 1; stroke-width: 0px; fill: rgb(98, 178, 0); fill-opacity: 1;"/><path class="point" d="M4,0A4,4 0 1,1 0,-4A4,4 0 0,1 4,0Z" transform="translate(422.09,323.41)" style="opacity: 1; stroke-width: 0px; fill: rgb(98, 178, 0); fill-opacity: 1;"/><path class="point" d="M4,0A4,4 0 1,1 0,-4A4,4 0 0,1 4,0Z" transform="translate(476.82,304.23)" style="opacity: 1; stroke-width: 0px; fill: rgb(98, 178, 0); fill-opacity: 1;"/><path class="point" d="M4,0A4,4 0 1,1 0,-4A4,4 0 0,1 4,0Z" transform="translate(531.55,391.92)" style="opacity: 1; stroke-width: 0px; fill: rgb(98, 178, 0); fill-opacity: 1;"/><path class="point" d="M4,0A4,4 0 1,1 0,-4A4,4 0 0,1 4,0Z" transform="translate(586.27,444)" style="opacity: 1; stroke-width: 0px; fill: rgb(98, 178, 0); fill-opacity: 1;"/><path class="point" d="M4,0A4,4 0 1,1 0,-4A4,4 0 0,1 4,0Z" transform="translate(641,444)" style="opacity: 1; stroke-width: 0px; fill: rgb(98, 178, 0); fill-opacity: 1;"/></g></g></g></g><g class="overplot"/><path class="xlines crisp" transform="translate(70,56)" d="M-5,448.5h690" style="fill: none; stroke-width: 1px; stroke: rgb(0, 0, 0); stroke-opacity: 0;"/><path class="ylines crisp" transform="translate(70,56)" d="M-4.5,-5v453" stroke-width="1px" style="fill: none; stroke: rgb(0, 0, 0); stroke-opacity: 0;"/><g class="overlines"/><g class="xaxislayer" transform="translate(70,56)"><g class="xtick" data-bb="109"><text text-anchor="start" x="0" y="464" transform="translate(39,0) rotate(30,0,457)" style="font-family: 'sans serif'; font-size: 14px; fill: rgb(68, 68, 68); fill-opacity: 1; visibility: visible; white-space: pre;" data-bb="96">2017 - W49</text></g><g class="xtick" data-bb="110"><text text-anchor="start" x="0" y="464" transform="translate(93.73,0) rotate(30,0,457)" style="font-family: 'sans serif'; font-size: 14px; fill: rgb(68, 68, 68); fill-opacity: 1; visibility: visible; white-space: pre;" data-bb="97">2017 - W50</text></g><g class="xtick" data-bb="111"><text text-anchor="start" x="0" y="464" transform="translate(148.45,0) rotate(30,0,457)" style="font-family: 'sans serif'; font-size: 14px; fill: rgb(68, 68, 68); fill-opacity: 1; visibility: visible; white-space: pre;" data-bb="98">2017 - W51</text></g><g class="xtick" data-bb="112"><text text-anchor="start" x="0" y="464" transform="translate(203.18,0) rotate(30,0,457)" style="font-family: 'sans serif'; font-size: 14px; fill: rgb(68, 68, 68); fill-opacity: 1; visibility: visible; white-space: pre;" data-bb="99">2017 - W52</text></g><g class="xtick" data-bb="113"><text text-anchor="start" x="0" y="464" transform="translate(257.91,0) rotate(30,0,457)" style="font-family: 'sans serif'; font-size: 14px; fill: rgb(68, 68, 68); fill-opacity: 1; visibility: visible; white-space: pre;" data-bb="100">2018 - W1</text></g><g class="xtick" data-bb="114"><text text-anchor="start" x="0" y="464" transform="translate(312.64,0) rotate(30,0,457)" style="font-family: 'sans serif'; font-size: 14px; fill: rgb(68, 68, 68); fill-opacity: 1; visibility: visible; white-space: pre;" data-bb="101">2018 - W2</text></g><g class="xtick" data-bb="115"><text text-anchor="start" x="0" y="464" transform="translate(367.36,0) rotate(30,0,457)" style="font-family: 'sans serif'; font-size: 14px; fill: rgb(68, 68, 68); fill-opacity: 1; visibility: visible; white-space: pre;" data-bb="102">2018 - W3</text></g><g class="xtick" data-bb="116"><text text-anchor="start" x="0" y="464" transform="translate(422.09,0) rotate(30,0,457)" style="font-family: 'sans serif'; font-size: 14px; fill: rgb(68, 68, 68); fill-opacity: 1; visibility: visible; white-space: pre;" data-bb="103">2018 - W4</text></g><g class="xtick" data-bb="117"><text text-anchor="start" x="0" y="464" transform="translate(476.82,0) rotate(30,0,457)" style="font-family: 'sans serif'; font-size: 14px; fill: rgb(68, 68, 68); fill-opacity: 1; visibility: visible; white-space: pre;" data-bb="104">2018 - W5</text></g><g class="xtick" data-bb="118"><text text-anchor="start" x="0" y="464" transform="translate(531.55,0) rotate(30,0,457)" style="font-family: 'sans serif'; font-size: 14px; fill: rgb(68, 68, 68); fill-opacity: 1; visibility: visible; white-space: pre;" data-bb="105">2018 - W6</text></g><g class="xtick" data-bb="119"><text text-anchor="start" x="0" y="464" transform="translate(586.27,0) rotate(30,0,457)" style="font-family: 'sans serif'; font-size: 14px; fill: rgb(68, 68, 68); fill-opacity: 1; visibility: visible; white-space: pre;" data-bb="106">2018 - W7</text></g><g class="xtick" data-bb="120"><text text-anchor="start" x="0" y="464" transform="translate(641,0) rotate(30,0,457)" style="font-family: 'sans serif'; font-size: 14px; fill: rgb(68, 68, 68); fill-opacity: 1; visibility: visible; white-space: pre;" data-bb="107">2018 - W8</text></g></g><g class="yaxislayer" transform="translate(70,56)"><g class="ytick" data-bb="122"><text text-anchor="end" x="-6" y="7" transform="translate(0,444)" style="font-family: 'sans serif'; font-size: 14px; fill: rgb(68, 68, 68); fill-opacity: 1; visibility: visible; white-space: pre;">0</text></g><g class="ytick" data-bb="123"><text text-anchor="end" x="-6" y="7" transform="translate(0,355.2)" style="font-family: 'sans serif'; font-size: 14px; fill: rgb(68, 68, 68); fill-opacity: 1; visibility: visible; white-space: pre;">20</text></g><g class="ytick" data-bb="124"><text text-anchor="end" x="-6" y="7" transform="translate(0,266.4)" style="font-family: 'sans serif'; font-size: 14px; fill: rgb(68, 68, 68); fill-opacity: 1; visibility: visible; white-space: pre;">40</text></g><g class="ytick" data-bb="125"><text text-anchor="end" x="-6" y="7" transform="translate(0,177.6)" style="font-family: 'sans serif'; font-size: 14px; fill: rgb(68, 68, 68); fill-opacity: 1; visibility: visible; white-space: pre;">60</text></g><g class="ytick" data-bb="126"><text text-anchor="end" x="-6" y="7" transform="translate(0,88.8)" style="font-family: 'sans serif'; font-size: 14px; fill: rgb(68, 68, 68); fill-opacity: 1; visibility: visible; white-space: pre;">80</text></g><g class="ytick" data-bb="127"><text text-anchor="end" x="-6" y="7" transform="translate(0,0)" style="font-family: 'sans serif'; font-size: 14px; fill: rgb(68, 68, 68); fill-opacity: 1; visibility: visible; white-space: pre;">100</text></g></g><g class="overaxes"/></g></g><g class="ternarylayer"/><g class="geolayer"/><g class="layer-above"><g class="imagelayer"/><g class="shapelayer"/></g><g class="pielayer"/><g class="glimages"/><defs id="topdefs-6a01bd"><clipPath id="legend6a01bd"><rect width="515" height="32" x="0" y="0"/></clipPath></defs><g class="infolayer"><g class="g-gtitle"/><g class="g-xtitle" data-bb="108" transform="translate(0,25.32421875)"><text class="xtitle" x="410" y="552" text-anchor="middle" style="font-family: 'sans serif'; font-size: 14px; fill: rgb(68, 68, 68); opacity: 1; font-weight: normal; white-space: pre; visibility: visible;">Epidemiological week number</text></g><g class="g-ytitle" data-bb="121"><text class="ytitle" transform="rotate(-90,32,278) translate(0, 0)" x="32" y="278" text-anchor="middle" style="font-family: 'sans serif'; font-size: 14px; fill: rgb(68, 68, 68); opacity: 1; font-weight: normal; white-space: pre; visibility: visible;">%</text></g><g class="legend" pointer-events="all" transform="translate(285, 11.599999999999959)"><rect class="bg" shape-rendering="crispEdges" style="stroke: rgb(68, 68, 68); stroke-opacity: 1; fill: rgb(255, 255, 255); fill-opacity: 1; stroke-width: 0px;" width="515" height="32" x="0" y="0"/><g class="scrollbox" transform="translate(0, 0)" clip-path="url(#legend6a01bd)"><g class="groups"><g class="traces" transform="translate(0, 15.6)" style="opacity: 1;"><g class="layers" style="opacity: 1;"><g class="legendfill"/><g class="legendlines"><path class="js-line" d="M5,0h30" style="fill: none; stroke: rgb(90, 10, 105); stroke-opacity: 1; stroke-width: 4px;"/></g><g class="legendsymbols"><g class="legendpoints"><path class="scatterpts" transform="translate(20,0)" d="M4,0A4,4 0 1,1 0,-4A4,4 0 0,1 4,0Z" style="opacity: 1; stroke-width: 0px; fill: rgb(90, 10, 105); fill-opacity: 1;"/></g></g></g><text class="legendtext user-select-none" x="40" y="5.46" style="text-anchor: start; font-family: 'Open Sans', verdana, arial, sans-serif; font-size: 14px; fill: rgb(68, 68, 68); fill-opacity: 1; white-space: pre; visibility: visible;" data-bb="128">Completeness of weekly reporting</text><rect class="legendtoggle" pointer-events="all" style="cursor: pointer; fill: rgb(0, 0, 0); fill-opacity: 0;" x="0" y="-10.6" width="515" height="21.2"/></g><g class="traces" transform="translate(257.09375, 15.6)" style="opacity: 1;"><g class="layers" style="opacity: 1;"><g class="legendfill"/><g class="legendlines"><path class="js-line" d="M5,0h30" style="fill: none; stroke: rgb(98, 178, 0); stroke-opacity: 1; stroke-width: 4px;"/></g><g class="legendsymbols"><g class="legendpoints"><path class="scatterpts" transform="translate(20,0)" d="M4,0A4,4 0 1,1 0,-4A4,4 0 0,1 4,0Z" style="opacity: 1; stroke-width: 0px; fill: rgb(98, 178, 0); fill-opacity: 1;"/></g></g></g><text class="legendtext user-select-none" x="40" y="5.46" style="text-anchor: start; font-family: 'Open Sans', verdana, arial, sans-serif; font-size: 14px; fill: rgb(68, 68, 68); fill-opacity: 1; white-space: pre; visibility: visible;" data-bb="129">Timeliness of weekly reporting</text><rect class="legendtoggle" pointer-events="all" x="0" y="-10.6" width="515" height="21.2" style="cursor: pointer; fill: rgb(0, 0, 0); fill-opacity: 0;"/></g></g></g><rect class="scrollbar" rx="20" ry="2" width="0" height="0" style="fill: rgb(128, 139, 164); fill-opacity: 1;"/></g></g></svg>