<svg class="main-svg" xmlns="http://www.w3.org/2000/svg" xmlns:xlink="http://www.w3.org/1999/xlink" width="800" height="600" style=""><rect x="0" y="0" width="800" height="600" style="fill: rgb(255, 255, 255); fill-opacity: 1;"/><defs id="defs-ce372f"><g class="gradients"/><g class="clips"><clipPath class="axesclip" id="clipce372fx"><rect x="70" y="0" width="680" height="600"/></clipPath><clipPath class="axesclip" id="clipce372fy"><rect x="0" y="56" width="800" height="444"/></clipPath><clipPath class="axesclip" id="clipce372fxy"><rect x="70" y="56" width="680" height="444"/></clipPath><clipPath class="plotclip" id="clipce372fxyplot"><rect width="680" height="444"/></clipPath></g></defs><g class="bglayer"><rect class="bg" x="66" y="52" width="688" height="452" style="fill: rgb(255, 255, 255); fill-opacity: 1; stroke-width: 0;"/></g><g class="layer-below"><g class="imagelayer"/><g class="shapelayer"/></g><g class="cartesianlayer"><g class="subplot xy"><g class="layer-subplot"><g class="shapelayer"/><g class="imagelayer"/></g><g class="gridlayer" transform="translate(70,56)"><path class="ygrid crisp" d="M0,0h680" transform="translate(0,355.2)" style="stroke: rgb(238, 238, 238); stroke-opacity: 1; stroke-width: 1px;"/><path class="ygrid crisp" d="M0,0h680" transform="translate(0,266.4)" style="stroke: rgb(238, 238, 238); stroke-opacity: 1; stroke-width: 1px;"/><path class="ygrid crisp" d="M0,0h680" transform="translate(0,177.6)" style="stroke: rgb(238, 238, 238); stroke-opacity: 1; stroke-width: 1px;"/><path class="ygrid crisp" d="M0,0h680" transform="translate(0,88.8)" style="stroke: rgb(238, 238, 238); stroke-opacity: 1; stroke-width: 1px;"/></g><g class="overgrid"/><g class="zerolinelayer" transform="translate(70,56)"><path class="yzl zl crisp" d="M0,0h680" transform="translate(0,444)" style="stroke: rgb(68, 68, 68); stroke-opacity: 1; stroke-width: 1px;"/></g><g class="overzero"/><g class="plot" transform="translate(70, 56)" clip-path="url(#clipce372fxyplot)"><g class="imagelayer"/><g class="maplayer"/><g class="barlayer"><g class="trace bars" style="opacity: 1;"><g class="points"><g class="point"><path d="M6.8,444V425.49H34V444Z" style="stroke-width: 0px; fill: rgb(90, 10, 105); fill-opacity: 1;"/></g><g class="point"><path d="M74.8,444V380.42H102V444Z" style="stroke-width: 0px; fill: rgb(90, 10, 105); fill-opacity: 1;"/></g><g class="point"><path d="M142.8,444V374.11H170V444Z" style="stroke-width: 0px; fill: rgb(90, 10, 105); fill-opacity: 1;"/></g><g class="point"><path d="M278.8,444V372.47H306V444Z" style="stroke-width: 0px; fill: rgb(90, 10, 105); fill-opacity: 1;"/></g><g class="point"><path d="M346.8,444V296.01H374V444Z" style="stroke-width: 0px; fill: rgb(90, 10, 105); fill-opacity: 1;"/></g><g class="point"><path d="M414.8,444V311.87H442V444Z" style="stroke-width: 0px; fill: rgb(90, 10, 105); fill-opacity: 1;"/></g><g class="point"><path d="M482.8,444V157.66H510V444Z" style="stroke-width: 0px; fill: rgb(90, 10, 105); fill-opacity: 1;"/></g><g class="point"><path d="M550.8,444V284.91H578V444Z" style="stroke-width: 0px; fill: rgb(90, 10, 105); fill-opacity: 1;"/></g><g class="point"><path d="M618.8,444V228.17H646V444Z" style="stroke-width: 0px; fill: rgb(90, 10, 105); fill-opacity: 1;"/></g></g></g><g class="trace bars" style="opacity: 1;"><g class="points"><g class="point"><path d="M34,444V437.83H61.2V444Z" style="stroke-width: 0px; fill: rgb(98, 178, 0); fill-opacity: 1;"/></g><g class="point"><path d="M102,444V412.79H129.2V444Z" style="stroke-width: 0px; fill: rgb(98, 178, 0); fill-opacity: 1;"/></g><g class="point"><path d="M170,444V419.31H197.2V444Z" style="stroke-width: 0px; fill: rgb(98, 178, 0); fill-opacity: 1;"/></g><g class="point"><path d="M306,444V426.73H333.2V444Z" style="stroke-width: 0px; fill: rgb(98, 178, 0); fill-opacity: 1;"/></g><g class="point"><path d="M374,444V327.72H401.2V444Z" style="stroke-width: 0px; fill: rgb(98, 178, 0); fill-opacity: 1;"/></g><g class="point"><path d="M442,444V362.08H469.2V444Z" style="stroke-width: 0px; fill: rgb(98, 178, 0); fill-opacity: 1;"/></g><g class="point"><path d="M510,444V263.82H537.2V444Z" style="stroke-width: 0px; fill: rgb(98, 178, 0); fill-opacity: 1;"/></g><g class="point"><path d="M578,444V358.89H605.2V444Z" style="stroke-width: 0px; fill: rgb(98, 178, 0); fill-opacity: 1;"/></g><g class="point"><path d="M646,444V305.87H673.2V444Z" style="stroke-width: 0px; fill: rgb(98, 178, 0); fill-opacity: 1;"/></g></g></g></g><g class="carpetlayer"/><g class="boxlayer"/><g class="scatterlayer"/></g><g class="overplot"/><path class="xlines crisp" transform="translate(70,56)" d="M-5,448.5h690" style="fill: none; stroke-width: 1px; stroke: rgb(0, 0, 0); stroke-opacity: 0;"/><path class="ylines crisp" transform="translate(70,56)" d="M-4.5,-5v453" stroke-width="1px" style="fill: none; stroke: rgb(0, 0, 0); stroke-opacity: 0;"/><g class="overlines"/><g class="xaxislayer" transform="translate(70,56)"><g class="xtick"><text text-anchor="start" x="0" y="464" transform="translate(34,0) rotate(30,0,457)" style="font-family: 'sans serif'; font-size: 14px; fill: rgb(68, 68, 68); fill-opacity: 1; visibility: visible; white-space: pre;" data-bb="58">District1</text></g><g class="xtick"><text text-anchor="start" x="0" y="464" transform="translate(102,0) rotate(30,0,457)" style="font-family: 'sans serif'; font-size: 14px; fill: rgb(68, 68, 68); fill-opacity: 1; visibility: visible; white-space: pre;" data-bb="59">District2</text></g><g class="xtick"><text text-anchor="start" x="0" y="464" transform="translate(170,0) rotate(30,0,457)" style="font-family: 'sans serif'; font-size: 14px; fill: rgb(68, 68, 68); fill-opacity: 1; visibility: visible; white-space: pre;" data-bb="60">District3</text></g><g class="xtick"><text text-anchor="start" x="0" y="464" transform="translate(238,0) rotate(30,0,457)" style="font-family: 'sans serif'; font-size: 14px; fill: rgb(68, 68, 68); fill-opacity: 1; visibility: visible; white-space: pre;" data-bb="61">District4</text></g><g class="xtick"><text text-anchor="start" x="0" y="464" transform="translate(306,0) rotate(30,0,457)" style="font-family: 'sans serif'; font-size: 14px; fill: rgb(68, 68, 68); fill-opacity: 1; visibility: visible; white-space: pre;" data-bb="62">District5</text></g><g class="xtick"><text text-anchor="start" x="0" y="464" transform="translate(374,0) rotate(30,0,457)" style="font-family: 'sans serif'; font-size: 14px; fill: rgb(68, 68, 68); fill-opacity: 1; visibility: visible; white-space: pre;" data-bb="63">DisctrictK</text></g><g class="xtick"><text text-anchor="start" x="0" y="464" transform="translate(442,0) rotate(30,0,457)" style="font-family: 'sans serif'; font-size: 14px; fill: rgb(68, 68, 68); fill-opacity: 1; visibility: visible; white-space: pre;" data-bb="64">DisctrictL</text></g><g class="xtick"><text text-anchor="start" x="0" y="464" transform="translate(510,0) rotate(30,0,457)" style="font-family: 'sans serif'; font-size: 14px; fill: rgb(68, 68, 68); fill-opacity: 1; visibility: visible; white-space: pre;" data-bb="65">DisctrictM</text></g><g class="xtick"><text text-anchor="start" x="0" y="464" transform="translate(578,0) rotate(30,0,457)" style="font-family: 'sans serif'; font-size: 14px; fill: rgb(68, 68, 68); fill-opacity: 1; visibility: visible; white-space: pre;" data-bb="66">DisctrictN</text></g><g class="xtick"><text text-anchor="start" x="0" y="464" transform="translate(646,0) rotate(30,0,457)" style="font-family: 'sans serif'; font-size: 14px; fill: rgb(68, 68, 68); fill-opacity: 1; visibility: visible; white-space: pre;" data-bb="67">DisctrictO</text></g></g><g class="yaxislayer" transform="translate(70,56)"><g class="ytick" data-bb="69"><text text-anchor="end" x="-6" y="7" transform="translate(0,444)" style="font-family: 'sans serif'; font-size: 14px; fill: rgb(68, 68, 68); fill-opacity: 1; visibility: visible; white-space: pre;">0</text></g><g class="ytick" data-bb="70"><text text-anchor="end" x="-6" y="7" transform="translate(0,355.2)" style="font-family: 'sans serif'; font-size: 14px; fill: rgb(68, 68, 68); fill-opacity: 1; visibility: visible; white-space: pre;">20</text></g><g class="ytick" data-bb="71"><text text-anchor="end" x="-6" y="7" transform="translate(0,266.4)" style="font-family: 'sans serif'; font-size: 14px; fill: rgb(68, 68, 68); fill-opacity: 1; visibility: visible; white-space: pre;">40</text></g><g class="ytick" data-bb="72"><text text-anchor="end" x="-6" y="7" transform="translate(0,177.6)" style="font-family: 'sans serif'; font-size: 14px; fill: rgb(68, 68, 68); fill-opacity: 1; visibility: visible; white-space: pre;">60</text></g><g class="ytick" data-bb="73"><text text-anchor="end" x="-6" y="7" transform="translate(0,88.8)" style="font-family: 'sans serif'; font-size: 14px; fill: rgb(68, 68, 68); fill-opacity: 1; visibility: visible; white-space: pre;">80</text></g><g class="ytick" data-bb="74"><text text-anchor="end" x="-6" y="7" transform="translate(0,0)" style="font-family: 'sans serif'; font-size: 14px; fill: rgb(68, 68, 68); fill-opacity: 1; visibility: visible; white-space: pre;">100</text></g></g><g class="overaxes"/></g></g><g class="ternarylayer"/><g class="geolayer"/><g class="layer-above"><g class="imagelayer"/><g class="shapelayer"/></g><g class="pielayer"/><g class="glimages"/><defs id="topdefs-ce372f"><clipPath id="legendce372f"><rect width="515" height="32" x="0" y="0"/></clipPath></defs><g class="infolayer"><g class="g-gtitle"/><g class="g-xtitle"/><g class="g-ytitle" data-bb="68"><text class="ytitle" transform="rotate(-90,32,278) translate(0, 0)" x="32" y="278" text-anchor="middle" style="font-family: 'sans serif'; font-size: 14px; fill: rgb(68, 68, 68); opacity: 1; font-weight: normal; white-space: pre; visibility: visible;">%</text></g><g class="legend" pointer-events="all" transform="translate(285, 11.599999999999959)"><rect class="bg" shape-rendering="crispEdges" style="stroke: rgb(68, 68, 68); stroke-opacity: 1; fill: rgb(255, 255, 255); fill-opacity: 1; stroke-width: 0px;" width="515" height="32" x="0" y="0"/><g class="scrollbox" transform="translate(0, 0)" clip-path="url(#legendce372f)"><g class="groups"><g class="traces" transform="translate(0, 15.6)" style="opacity: 1;"><g class="layers" style="opacity: 1;"><g class="legendfill"/><g class="legendlines"/><g class="legendsymbols"><g class="legendpoints"><path class="legendbar" d="M6,6H-6V-6H6Z" transform="translate(20,0)" style="stroke-width: 0px; fill: rgb(90, 10, 105); fill-opacity: 1;"/></g></g></g><text class="legendtext user-select-none" x="40" y="5.46" style="text-anchor: start; font-family: 'Open Sans', verdana, arial, sans-serif; font-size: 14px; fill: rgb(68, 68, 68); fill-opacity: 1; white-space: pre; visibility: visible;" data-bb="75">Completeness of weekly reporting</text><rect class="legendtoggle" pointer-events="all" style="cursor: pointer; fill: rgb(0, 0, 0); fill-opacity: 0;" x="0" y="-10.6" width="515" height="21.2"/></g><g class="traces" transform="translate(257.09375, 15.6)" style="opacity: 1;"><g class="layers" style="opacity: 1;"><g class="legendfill"/><g class="legendlines"/><g class="legendsymbols"><g class="legendpoints"><path class="legendbar" d="M6,6H-6V-6H6Z" transform="translate(20,0)" style="stroke-width: 0px; fill: rgb(98, 178, 0); fill-opacity: 1;"/></g></g></g><text class="legendtext user-select-none" x="40" y="5.46" style="text-anchor: start; font-family: 'Open Sans', verdana, arial, sans-serif; font-size: 14px; fill: rgb(68, 68, 68); fill-opacity: 1; white-space: pre; visibility: visible;" data-bb="76">Timeliness of weekly reporting</text><rect class="legendtoggle" pointer-events="all" x="0" y="-10.6" width="515" height="21.2" style="cursor: pointer; fill: rgb(0, 0, 0); fill-opacity: 0;"/></g></g></g><rect class="scrollbar" rx="20" ry="2" width="0" height="0" style="fill: rgb(128, 139, 164); fill-opacity: 1;"/></g></g></svg>